# Blender v3.1.2 OBJ File: ''
# www.blender.org
mtllib Upgrade Ring.mtl
o Mesh_0134
v 1.126232 0.801967 -0.138736
v 0.731001 1.177285 -0.138668
v 1.134131 0.801133 0.000146
v 0.733491 1.195260 0.000218
v 0.937831 0.631293 0.000120
v 0.574461 0.988721 0.000180
v 0.939981 0.645526 -0.138765
v 0.591262 0.991171 -0.138700
v 1.056162 -0.934326 -0.195234
v 1.342472 -0.204466 -0.195113
v 1.058581 -0.951153 -0.000160
v 1.351541 -0.197225 -0.000029
v 0.816051 -0.814682 -0.000136
v 1.089111 -0.127198 -0.000020
v 0.829592 -0.803629 -0.195217
v 1.092362 -0.135762 -0.195096
v 0.272941 -1.391979 -0.159356
v 0.955432 -0.997317 -0.159288
v 0.258571 -1.411219 -0.000248
v 0.970951 -1.001595 -0.000167
v 0.148011 -1.125283 -0.000199
v 0.811981 -0.784848 -0.000131
v 0.157281 -1.128375 -0.159316
v 0.816592 -0.794321 -0.159249
v -0.529799 -1.294501 -0.229290
v 0.163241 -1.372485 -0.229306
v -0.541819 -1.306299 -0.000228
v 0.174261 -1.386060 -0.000238
v -0.454259 -1.042716 -0.000181
v 0.169991 -1.104414 -0.000190
v -0.444969 -1.049718 -0.229246
v 0.161381 -1.107629 -0.229264
v -1.234379 -0.638002 -0.193225
v -0.605939 -1.248179 -0.193327
v -1.247499 -0.644964 -0.000110
v -0.603099 -1.260907 -0.000217
v -1.034759 -0.478325 -0.000085
v -0.436869 -1.059689 -0.000182
v -1.035589 -0.486387 -0.193192
v -0.450299 -1.060944 -0.193291
v -1.362559 0.032481 -0.231027
v -1.230909 -0.563592 -0.231134
v -1.380249 0.038875 0.000013
v -1.239929 -0.570979 -0.000095
v -1.126339 0.075041 0.000012
v -1.013609 -0.500042 -0.000090
v -1.135259 0.067829 -0.231021
v -1.022759 -0.494221 -0.231115
v -0.270199 1.349120 -0.141879
v -0.965639 0.999931 -0.141944
v -0.267749 1.359324 0.000246
v -0.976639 1.004815 0.000178
v -0.178529 1.113340 0.000198
v -0.826589 0.793328 0.000147
v -0.185789 1.122267 -0.141919
v -0.826259 0.802196 -0.141978
v -1.028509 0.929251 -0.194910
v -1.364099 0.115837 -0.195055
v -1.028089 0.933313 0.000166
v -1.377219 0.108864 0.000017
v -0.820319 0.821074 0.000144
v -1.123059 0.045641 0.000007
v -0.828919 0.817848 -0.194925
v -1.130409 0.054704 -0.195067
v 0.641032 1.221372 -0.177863
v -0.168759 1.378641 -0.177831
v 0.662091 1.237008 0.000226
v -0.175849 1.387311 0.000247
v 0.600611 0.961239 0.000179
v -0.203329 1.109664 0.000201
v 0.594101 0.978477 -0.177905
v -0.189369 1.124812 -0.177882
v 1.347282 -0.119970 -0.161102
v 1.189192 0.735314 -0.160952
v 1.358241 -0.129994 -0.000015
v 1.195061 0.745594 0.000136
v 1.076961 -0.145189 -0.000022
v 0.918401 0.655778 0.000116
v 1.090412 -0.138891 -0.161102
v 0.927901 0.654907 -0.160963
vt 1.000000 -0.418000
vt 0.000000 -0.418000
vt 1.000000 -0.996100
vt 0.000000 -0.996100
vt 0.000000 -0.996100
vt 1.000000 -0.996100
vt 0.000000 -0.418000
vt 1.000000 -0.418000
vt 1.000000 0.000000
vt 0.000000 0.000000
vt 1.000000 -0.402300
vt 0.000000 -0.402300
vt 0.531300 -0.418000
vt 0.000000 -0.418000
vt 0.531300 -0.996100
vt 0.000000 -0.996100
vt 0.531300 -0.996100
vt 0.531300 -0.418000
vt 0.000000 -0.996100
vt 0.000000 -0.418000
vt 2.000000 -0.418000
vt 0.000000 -0.418000
vt 2.000000 -0.996100
vt 0.000000 -0.996100
vt 0.000000 -0.996100
vt 2.000000 -0.996100
vt 0.000000 -0.418000
vt 2.000000 -0.418000
vt 2.000000 0.000000
vt 0.000000 0.000000
vt 2.000000 -0.402300
vt 0.000000 -0.402300
vt 0.531300 -0.418000
vt 0.000000 -0.418000
vt 0.531300 -0.996100
vt 0.000000 -0.996100
vt 0.531300 -0.996100
vt 0.531300 -0.418000
vt 0.000000 -0.996100
vt 0.000000 -0.418000
vt 2.000000 -0.418000
vt 0.000000 -0.418000
vt 2.000000 -0.996100
vt 0.000000 -0.996100
vt 0.000000 -0.996100
vt 2.000000 -0.996100
vt 0.000000 -0.418000
vt 2.000000 -0.418000
vt 2.000000 0.000000
vt 0.000000 0.000000
vt 2.000000 -0.402300
vt 0.000000 -0.402300
vt 0.531300 -0.418000
vt 0.000000 -0.418000
vt 0.531300 -0.996100
vt 0.000000 -0.996100
vt 0.531300 -0.996100
vt 0.531300 -0.418000
vt 0.000000 -0.996100
vt 0.000000 -0.418000
vt 1.593800 -0.418000
vt 0.000000 -0.418000
vt 1.593800 -0.996100
vt 0.000000 -0.996100
vt 0.000000 -0.996100
vt 1.593800 -0.996100
vt 0.000000 -0.418000
vt 1.593800 -0.418000
vt 1.593800 0.000000
vt 0.000000 0.000000
vt 1.593800 -0.402300
vt 0.000000 -0.402300
vt 0.531300 -0.418000
vt 0.000000 -0.418000
vt 0.531300 -0.996100
vt 0.000000 -0.996100
vt 0.531300 -0.996100
vt 0.531300 -0.418000
vt 0.000000 -0.996100
vt 0.000000 -0.418000
vt 2.000000 -0.418000
vt 0.000000 -0.418000
vt 2.000000 -0.996100
vt 0.000000 -0.996100
vt 0.000000 -0.996100
vt 2.000000 -0.996100
vt 0.000000 -0.418000
vt 2.000000 -0.418000
vt 2.000000 0.000000
vt 0.000000 0.000000
vt 2.000000 -0.402300
vt 0.000000 -0.402300
vt 0.531300 -0.418000
vt 0.000000 -0.418000
vt 0.531300 -0.996100
vt 0.000000 -0.996100
vt 0.531300 -0.996100
vt 0.531300 -0.418000
vt 0.000000 -0.996100
vt 0.000000 -0.418000
vt 1.281300 -0.418000
vt 0.000000 -0.418000
vt 1.281300 -0.996100
vt 0.000000 -0.996100
vt 0.000000 -0.996100
vt 1.281300 -0.996100
vt 0.000000 -0.418000
vt 1.281300 -0.418000
vt 1.281300 0.000000
vt 0.000000 0.000000
vt 1.281300 -0.402300
vt 0.000000 -0.402300
vt 0.531300 -0.418000
vt 0.000000 -0.418000
vt 0.531300 -0.996100
vt 0.000000 -0.996100
vt 0.531300 -0.996100
vt 0.531300 -0.418000
vt 0.000000 -0.996100
vt 0.000000 -0.418000
vt 2.000000 -0.418000
vt 0.000000 -0.418000
vt 2.000000 -0.996100
vt 0.000000 -0.996100
vt 0.000000 -0.996100
vt 2.000000 -0.996100
vt 0.000000 -0.418000
vt 2.000000 -0.418000
vt 2.000000 0.000000
vt 0.000000 0.000000
vt 2.000000 -0.402300
vt 0.000000 -0.402300
vt 0.531300 -0.418000
vt 0.000000 -0.418000
vt 0.531300 -0.996100
vt 0.000000 -0.996100
vt 0.531300 -0.996100
vt 0.531300 -0.418000
vt 0.000000 -0.996100
vt 0.000000 -0.418000
vt 2.000000 -0.418000
vt 0.000000 -0.418000
vt 2.000000 -0.996100
vt 0.000000 -0.996100
vt 0.000000 -0.996100
vt 2.000000 -0.996100
vt 0.000000 -0.418000
vt 2.000000 -0.418000
vt 2.000000 0.000000
vt 0.000000 0.000000
vt 2.000000 -0.402300
vt 0.000000 -0.402300
vt 0.531300 -0.418000
vt 0.000000 -0.418000
vt 0.531300 -0.996100
vt 0.000000 -0.996100
vt 0.531300 -0.996100
vt 0.531300 -0.418000
vt 0.000000 -0.996100
vt 0.000000 -0.418000
vt 2.000000 -0.418000
vt 0.000000 -0.418000
vt 2.000000 -0.996100
vt 0.000000 -0.996100
vt 0.000000 -0.996100
vt 2.000000 -0.996100
vt 0.000000 -0.418000
vt 2.000000 -0.418000
vt 2.000000 0.000000
vt 0.000000 0.000000
vt 2.000000 -0.402300
vt 0.000000 -0.402300
vt 0.531300 -0.418000
vt 0.000000 -0.418000
vt 0.531300 -0.996100
vt 0.000000 -0.996100
vt 0.531300 -0.996100
vt 0.531300 -0.418000
vt 0.000000 -0.996100
vt 0.000000 -0.418000
vt 2.000000 -0.418000
vt 0.000000 -0.418000
vt 2.000000 -0.996100
vt 0.000000 -0.996100
vt 0.000000 -0.996100
vt 2.000000 -0.996100
vt 0.000000 -0.418000
vt 2.000000 -0.418000
vt 2.000000 0.000000
vt 0.000000 0.000000
vt 2.000000 -0.402300
vt 0.000000 -0.402300
vt 0.531300 -0.418000
vt 0.000000 -0.418000
vt 0.531300 -0.996100
vt 0.000000 -0.996100
vt 0.531300 -0.996100
vt 0.531300 -0.418000
vt 0.000000 -0.996100
vt 0.000000 -0.418000
vn 0.6882 0.7247 -0.0348
vn 0.6975 0.7090 -0.1043
vn -0.6988 -0.7104 -0.0836
vn -0.7006 -0.7069 -0.0972
vn -0.0000 0.0002 -1.0000
vn -0.7981 0.5992 -0.0632
vn -0.7895 0.6079 -0.0848
vn 0.6528 -0.7545 -0.0672
vn 0.6497 -0.7579 -0.0592
vn 0.6461 -0.7616 -0.0498
vn 0.6426 -0.7651 -0.0411
vn 0.9301 -0.3648 -0.0430
vn 0.9315 -0.3624 -0.0319
vn 0.9303 -0.3644 -0.0409
vn 0.9314 -0.3625 -0.0319
vn 0.9317 -0.3620 -0.0299
vn -0.9285 0.3688 -0.0436
vn -0.9298 0.3665 -0.0337
vn -0.9288 0.3683 -0.0416
vn -0.9298 0.3664 -0.0336
vn -0.9301 0.3659 -0.0316
vn 0.2646 0.9632 -0.0480
vn 0.2604 0.9646 -0.0421
vn 0.2617 0.9641 -0.0439
vn 0.2576 0.9655 -0.0381
vn 0.2617 0.9642 -0.0439
vn -0.4887 -0.8685 -0.0831
vn -0.4925 -0.8668 -0.0774
vn -0.4945 -0.8660 -0.0744
vn -0.4985 -0.8642 -0.0684
vn 0.4997 -0.8642 -0.0594
vn 0.4975 -0.8646 -0.0703
vn 0.4994 -0.8642 -0.0609
vn 0.4975 -0.8646 -0.0704
vn 0.4972 -0.8647 -0.0717
vn 0.4994 -0.8642 -0.0610
vn -0.4558 0.8890 -0.0438
vn -0.4516 0.8900 -0.0631
vn -0.4552 0.8892 -0.0468
vn -0.4510 0.8901 -0.0661
vn 0.8236 0.5633 -0.0652
vn 0.8125 0.5822 -0.0299
vn 0.8176 0.5740 -0.0455
vn 0.8063 0.5914 -0.0118
vn -0.9317 -0.3602 -0.0473
vn -0.9253 -0.3722 -0.0726
vn -0.9166 -0.3863 -0.1032
vn -0.9079 -0.3984 -0.1302
vn -0.1116 -0.9921 -0.0570
vn -0.1105 -0.9924 -0.0535
vn 0.0983 0.9948 -0.0264
vn 0.0958 0.9952 -0.0196
vn 0.0976 0.9949 -0.0246
vn 0.0951 0.9953 -0.0175
vn 0.0976 0.9949 -0.0245
vn 0.9988 0.0070 -0.0476
vn 0.9990 0.0116 -0.0421
vn 0.9990 0.0108 -0.0431
vn 0.9992 0.0152 -0.0378
vn 0.9990 0.0107 -0.0431
vn -0.9479 0.3149 -0.0481
vn -0.9464 0.3203 -0.0413
vn -0.9461 0.3216 -0.0398
vn -0.9444 0.3273 -0.0327
vn -0.6948 -0.7155 -0.0730
vn -0.6911 -0.7215 -0.0422
vn -0.6942 -0.7166 -0.0681
vn -0.6905 -0.7224 -0.0375
vn 0.6967 0.7166 -0.0329
vn 0.6991 0.7133 -0.0502
vn 0.6972 0.7160 -0.0358
vn 0.6995 0.7126 -0.0533
vn 0.6972 0.7160 -0.0359
vn 0.7679 -0.6383 -0.0534
vn 0.7692 -0.6370 -0.0510
vn 0.7688 -0.6374 -0.0517
vn 0.7692 -0.6370 -0.0508
vn 0.7700 -0.6361 -0.0494
vn -0.6164 0.7869 -0.0302
vn -0.6125 0.7902 -0.0232
vn -0.6106 0.7917 -0.0200
vn -0.6064 0.7951 -0.0125
vn -0.9742 -0.2151 -0.0686
vn -0.9737 -0.2220 -0.0504
vn -0.9741 -0.2173 -0.0632
vn -0.9735 -0.2240 -0.0452
vn 0.9804 0.1922 -0.0439
vn 0.9801 0.1952 -0.0363
vn 0.9803 0.1932 -0.0415
vn 0.9800 0.1962 -0.0339
vn 0.9803 0.1932 -0.0414
vn 0.3161 -0.9485 -0.0180
vn 0.3074 -0.9512 -0.0270
vn 0.3073 -0.9512 -0.0273
vn 0.3074 -0.9512 -0.0271
vn 0.2989 -0.9536 -0.0359
vn -0.1410 0.9897 -0.0255
vn -0.1468 0.9886 -0.0318
vn -0.1472 0.9886 -0.0322
vn -0.1535 0.9874 -0.0391
vn -0.4480 0.8923 -0.0563
vn -0.4465 0.8925 -0.0642
vn -0.4478 0.8923 -0.0574
vn -0.4464 0.8925 -0.0647
vn -0.4463 0.8925 -0.0652
vn 0.4414 -0.8939 -0.0787
vn 0.4464 -0.8932 -0.0547
vn -0.8166 -0.5756 -0.0434
vn -0.8155 -0.5774 -0.0397
vn -0.8161 -0.5765 -0.0416
vn -0.8150 -0.5782 -0.0380
vn 0.9397 0.3409 -0.0266
vn 0.9387 0.3432 -0.0312
vn 0.9376 0.3459 -0.0362
vn 0.9364 0.3484 -0.0412
vn -0.9244 0.3814 -0.0060
vn -0.9205 0.3884 -0.0423
vn -0.9238 0.3826 -0.0118
vn -0.9205 0.3885 -0.0423
vn -0.9198 0.3895 -0.0479
vn -0.9238 0.3826 -0.0119
vn 0.9310 -0.3635 -0.0350
vn 0.9291 -0.3664 -0.0495
vn 0.9306 -0.3640 -0.0376
vn 0.9288 -0.3669 -0.0520
vn 0.9307 -0.3640 -0.0375
vn -0.2527 -0.9662 -0.0515
vn -0.2459 -0.9684 -0.0423
vn -0.2478 -0.9678 -0.0447
vn -0.2412 -0.9698 -0.0360
vn 0.4750 0.8793 -0.0355
vn 0.4804 0.8766 -0.0283
vn 0.4818 0.8759 -0.0265
vn 0.4873 0.8730 -0.0192
vn 0.1895 0.9759 -0.1081
vn 0.1781 0.9828 -0.0496
vn 0.1877 0.9773 -0.0987
vn 0.1764 0.9835 -0.0409
vn 0.1877 0.9773 -0.0986
vn -0.1808 -0.9795 -0.0882
vn -0.1825 -0.9785 -0.0962
vn -0.1811 -0.9794 -0.0895
vn -0.1827 -0.9783 -0.0975
vn -0.1811 -0.9794 -0.0894
vn -0.9958 0.0809 -0.0436
vn -0.9939 0.0921 -0.0602
vn -0.9947 0.0877 -0.0537
vn -0.9927 0.0983 -0.0695
vn -0.9947 0.0878 -0.0537
vn 0.9745 -0.2172 -0.0567
vn 0.9757 -0.2072 -0.0717
vn 0.9763 -0.2003 -0.0819
vn 0.9770 -0.1888 -0.0990
vn 0.9818 0.1815 -0.0555
vn 0.9820 0.1828 -0.0483
vn 0.9818 0.1817 -0.0546
vn 0.9820 0.1830 -0.0475
vn -0.9771 -0.1934 -0.0892
vn -0.9780 -0.1994 -0.0607
vn -0.9773 -0.1942 -0.0851
vn -0.9781 -0.2002 -0.0566
vn -0.2937 0.9546 -0.0502
vn -0.3039 0.9522 -0.0320
vn -0.2989 0.9534 -0.0411
vn -0.3087 0.9509 -0.0233
vn 0.0539 -0.9979 -0.0345
vn 0.0603 -0.9972 -0.0451
vn 0.0663 -0.9963 -0.0553
vn 0.0733 -0.9951 -0.0669
usemtl Tex_0029_0_png
s 1
f 1/1/1 2/2/1 3/3/1
f 2/2/2 4/4/2 3/3/2
f 5/5/3 6/6/3 7/7/3
f 6/6/4 8/8/4 7/7/4
f 7/9/5 8/10/5 1/11/5
f 8/10/5 2/12/5 1/11/5
f 2/13/6 8/14/6 4/15/6
f 8/14/7 6/16/7 4/15/7
f 5/17/8 7/18/9 3/19/10
f 7/18/9 1/20/11 3/19/10
f 9/21/12 10/22/13 11/23/14
f 10/22/15 12/24/16 11/23/14
f 13/25/17 14/26/18 15/27/19
f 14/26/20 16/28/21 15/27/19
f 15/29/5 16/30/5 9/31/5
f 16/30/5 10/32/5 9/31/5
f 10/33/22 16/34/23 12/35/24
f 16/34/23 14/36/25 12/35/26
f 13/37/27 15/38/28 11/39/29
f 15/38/28 9/40/30 11/39/29
f 17/41/31 18/42/32 19/43/33
f 18/42/34 20/44/35 19/43/36
f 21/45/37 22/46/38 23/47/39
f 22/46/38 24/48/40 23/47/39
f 23/49/5 24/50/5 17/51/5
f 24/50/5 18/52/5 17/51/5
f 18/53/41 24/54/42 20/55/43
f 24/54/42 22/56/44 20/55/43
f 21/57/45 23/58/46 19/59/47
f 23/58/46 17/60/48 19/59/47
f 25/61/49 26/62/49 27/63/49
f 26/62/50 28/64/50 27/63/50
f 29/65/51 30/66/52 31/67/53
f 30/66/52 32/68/54 31/67/55
f 31/69/5 32/70/5 25/71/5
f 32/70/5 26/72/5 25/71/5
f 26/73/56 32/74/57 28/75/58
f 32/74/57 30/76/59 28/75/60
f 29/77/61 31/78/62 27/79/63
f 31/78/62 25/80/64 27/79/63
f 33/81/65 34/82/66 35/83/67
f 34/82/66 36/84/68 35/83/67
f 37/85/69 38/86/70 39/87/71
f 38/86/70 40/88/72 39/87/73
f 39/89/5 40/90/5 33/91/5
f 40/90/5 34/92/5 33/91/5
f 34/93/74 40/94/75 36/95/76
f 40/94/77 38/96/78 36/95/76
f 37/97/79 39/98/80 35/99/81
f 39/98/80 33/100/82 35/99/81
f 41/101/83 42/102/84 43/103/85
f 42/102/84 44/104/86 43/103/85
f 45/105/87 46/106/88 47/107/89
f 46/106/88 48/108/90 47/107/91
f 47/109/5 48/110/5 41/111/5
f 48/110/5 42/112/5 41/111/5
f 42/113/92 48/114/93 44/115/94
f 48/114/95 46/116/96 44/115/94
f 45/117/97 47/118/98 43/119/99
f 47/118/98 41/120/100 43/119/99
f 49/121/101 50/122/102 51/123/103
f 50/122/104 52/124/105 51/123/103
f 53/125/106 54/126/106 55/127/106
f 54/126/107 56/128/107 55/127/107
f 55/129/5 56/130/5 49/131/5
f 56/130/5 50/132/5 49/131/5
f 50/133/108 56/134/109 52/135/110
f 56/134/109 54/136/111 52/135/110
f 53/137/112 55/138/113 51/139/114
f 55/138/113 49/140/115 51/139/114
f 57/141/116 58/142/117 59/143/118
f 58/142/119 60/144/120 59/143/121
f 61/145/122 62/146/123 63/147/124
f 62/146/123 64/148/125 63/147/126
f 63/149/5 64/150/5 57/151/5
f 64/150/5 58/152/5 57/151/5
f 58/153/127 64/154/128 60/155/129
f 64/154/128 62/156/130 60/155/129
f 61/157/131 63/158/132 59/159/133
f 63/158/132 57/160/134 59/159/133
f 65/161/135 66/162/136 67/163/137
f 66/162/136 68/164/138 67/163/139
f 69/165/140 70/166/141 71/167/142
f 70/166/141 72/168/143 71/167/144
f 71/169/5 72/170/5 65/171/5
f 72/170/5 66/172/5 65/171/5
f 66/173/145 72/174/146 68/175/147
f 72/174/146 70/176/148 68/175/149
f 69/177/150 71/178/151 67/179/152
f 71/178/151 65/180/153 67/179/152
f 73/181/154 74/182/155 75/183/156
f 74/182/155 76/184/157 75/183/156
f 77/185/158 78/186/159 79/187/160
f 78/186/159 80/188/161 79/187/160
f 79/189/5 80/190/5 73/191/5
f 80/190/5 74/192/5 73/191/5
f 74/193/162 80/194/163 76/195/164
f 80/194/163 78/196/165 76/195/164
f 77/197/166 79/198/167 75/199/168
f 79/198/167 73/200/169 75/199/168
