# Blender v3.0.0 OBJ File: ''
# www.blender.org
mtllib table.mtl
o table
v -4.300000 0.220000 0.280000
v -4.300000 0.220000 -0.280000
v -4.400000 0.020000 -0.280000
v -4.400000 0.020000 0.280000
v -4.400000 1.702248 3.499999
v -4.400000 1.702249 -3.500001
v -4.400000 1.502249 -3.500000
v -4.400000 1.502248 3.500000
v 4.400000 1.502249 -3.500000
v 4.400000 1.502248 3.500000
v 4.400000 1.702249 -3.500000
v 4.400000 1.702248 3.500000
v -3.865268 0.000000 -2.100000
v -3.865268 -0.000000 2.100000
v -4.134732 -0.000000 2.100000
v -4.134732 0.000000 -2.100000
v -4.134732 0.110000 2.100000
v -3.865268 0.110000 2.100000
v -3.900000 1.502249 0.700000
v -4.100000 1.502249 0.700000
v -3.900000 1.502249 -0.700000
v -4.100000 1.502249 -0.700000
v -3.865268 0.110000 -2.100000
v -4.134732 0.110000 -2.100000
v 4.134732 -0.000000 2.100000
v 4.134732 0.000000 -2.100000
v 4.134732 0.110000 -2.100000
v 4.134732 0.110000 2.100000
v 3.865268 -0.000000 2.100000
v 3.865268 0.110000 2.100000
v 3.865268 0.110000 -2.100000
v 3.865268 0.000000 -2.100000
v 4.100000 1.502249 -0.700000
v 4.100000 1.502249 0.700000
v 3.900000 1.502249 0.700000
v 3.900000 1.502249 -0.700000
v 4.300000 0.220000 -0.279999
v 4.300000 0.220000 0.280001
v 4.400000 0.020000 0.280002
v 4.400000 0.020000 -0.279999
v 0.134732 0.000000 -2.100000
v 0.134732 -0.000000 2.100000
v -0.134732 -0.000000 2.100000
v -0.134732 0.000000 -2.100000
v -0.134732 0.110000 2.100000
v 0.134732 0.110000 2.100000
v 0.100000 1.502249 0.700000
v -0.100000 1.502249 0.700000
v 0.100000 1.502249 -0.700000
v -0.100000 1.502249 -0.700000
v 0.134732 0.110000 -2.100000
v -0.134732 0.110000 -2.100000
vt 0.035041 0.743957
vt 0.035041 0.767310
vt 0.001664 0.767310
vt 0.001664 0.743957
vt 0.406828 0.868039
vt 0.715933 0.868039
vt 0.715933 0.898949
vt 0.406828 0.898950
vt 0.341679 0.868039
vt 0.032574 0.868039
vt 0.341679 0.898950
vt 0.032574 0.898949
vt 0.746843 0.898949
vt 0.372590 0.898950
vt 0.000000 0.000000
vt 0.000000 0.000000
vt 0.000000 0.000000
vt 0.000000 0.000000
vt 0.000000 0.000000
vt 0.000000 0.000000
vt 0.000000 0.000000
vt 0.000000 0.000000
vt 0.000000 0.000000
vt 0.000000 0.000000
vt 0.000000 0.000000
vt 0.000000 0.000000
vt 0.000000 0.000000
vt 0.000000 0.000000
vt 0.000000 0.000000
vt 0.000000 0.000000
vt 0.000000 0.000000
vt 0.000000 0.000000
vt 0.000000 0.000000
vt 0.000000 0.000000
vt 0.000000 0.000000
vt 0.000000 0.000000
vt 0.000000 0.000000
vt 0.000000 0.000000
vt 0.001664 0.868039
vt 0.375917 0.868039
vt 0.035041 0.743957
vt 0.035041 0.767310
vt 0.001664 0.767310
vt 0.001664 0.743957
vt 0.000000 0.000000
vt 0.000000 0.000000
vt 0.000000 0.000000
vt 0.000000 0.000000
vt 0.000000 0.000000
vt 0.000000 0.000000
vt 0.000000 0.000000
vt 0.000000 0.000000
vt 0.000000 0.000000
vt 0.000000 0.000000
vt 0.000000 0.000000
vt 0.000000 0.000000
vt 0.001664 0.767310
vt 0.035041 0.767310
vt 0.035041 0.743957
vt 0.001664 0.743957
vt 0.001664 0.743957
vt 0.001664 0.767310
vt 0.001664 0.743957
vt 0.035041 0.743957
vt 0.001664 0.743957
vt 0.035041 0.767310
vt 0.035041 0.767310
vt 0.035041 0.767310
vn -0.8944 0.4472 0.0000
vn -1.0000 0.0000 0.0000
vn 0.0000 -1.0000 -0.0000
vn 1.0000 0.0000 0.0000
vn 0.0000 -0.0000 -1.0000
vn -0.0000 1.0000 0.0000
vn 0.0000 0.0000 1.0000
vn 0.0000 0.7091 0.7051
vn 0.0000 0.7091 -0.7051
vn -0.9997 0.0249 0.0000
vn 0.9997 0.0249 0.0000
vn 0.8944 0.4472 0.0000
usemtl trn_TableLong.004
s 1
f 1/1/1 2/2/1 3/3/1 4/4/1
f 5/5/2 6/6/2 7/7/2 8/8/2
f 7/7/3 9/9/3 10/10/3 8/8/3
f 11/11/4 12/12/4 10/10/4 9/9/4
f 6/13/5 11/11/5 9/14/5 7/7/5
f 11/11/6 6/6/6 5/5/6 12/12/6
f 13/15/3 14/16/3 15/17/3 16/18/3
f 17/19/7 15/17/7 14/16/7 18/20/7
f 17/19/8 18/20/8 19/21/8 20/22/8
f 21/23/6 22/24/6 20/22/6 19/21/6
f 23/25/9 24/26/9 22/24/9 21/23/9
f 13/15/5 16/18/5 24/26/5 23/25/5
f 17/19/10 20/22/10 22/24/10 24/26/10
f 18/20/11 23/25/11 21/23/11 19/21/11
f 15/17/2 17/19/2 24/26/2 16/18/2
f 14/16/4 13/15/4 23/25/4 18/20/4
f 25/27/4 26/28/4 27/29/4 28/30/4
f 29/31/2 30/32/2 31/33/2 32/34/2
f 28/30/11 27/29/11 33/35/11 34/36/11
f 30/32/10 35/37/10 36/38/10 31/33/10
f 26/28/5 32/34/5 31/33/5 27/29/5
f 27/29/9 31/33/9 36/38/9 33/35/9
f 33/35/6 36/38/6 35/37/6 34/36/6
f 30/32/8 28/30/8 34/36/8 35/37/8
f 30/32/7 29/31/7 25/27/7 28/30/7
f 26/28/3 25/27/3 29/31/3 32/34/3
f 12/39/7 5/5/7 8/40/7 10/10/7
f 37/41/12 38/42/12 39/43/12 40/44/12
f 41/45/3 42/46/3 43/47/3 44/48/3
f 45/49/7 43/47/7 42/46/7 46/50/7
f 45/49/8 46/50/8 47/51/8 48/52/8
f 49/53/6 50/54/6 48/52/6 47/51/6
f 51/55/9 52/56/9 50/54/9 49/53/9
f 41/45/5 44/48/5 52/56/5 51/55/5
f 45/49/10 48/52/10 50/54/10 52/56/10
f 46/50/11 51/55/11 49/53/11 47/51/11
f 43/47/2 45/49/2 52/56/2 44/48/2
f 42/46/4 41/45/4 51/55/4 46/50/4
f 4/57/7 39/58/7 38/59/7 1/60/7
f 3/61/3 40/62/3 39/63/3 4/57/3
f 2/64/5 37/65/5 40/62/5 3/66/5
f 1/67/6 38/59/6 37/68/6 2/64/6
